<?xml version="1.0" encoding="UTF-8" standalone="no"?>
<!DOCTYPE svg PUBLIC "-//W3C//DTD SVG 1.1//EN" "http://www.w3.org/Graphics/SVG/1.1/DTD/svg11.dtd">
<svg width="100%" height="100%" viewBox="0 0 530 218" version="1.1" xmlns="http://www.w3.org/2000/svg" xmlns:xlink="http://www.w3.org/1999/xlink" xml:space="preserve" xmlns:serif="http://www.serif.com/" style="fill-rule:evenodd;clip-rule:evenodd;stroke-linejoin:round;stroke-miterlimit:2;">
    <g transform="matrix(1,0,0,1,-1550.27,-120.349)">
        <g transform="matrix(1.1002,0,0,1,-165.336,0)">
            <g transform="matrix(0.908923,0,0,1,300.159,-14.5037)">
                <g transform="matrix(4.2915,0,0,4.2915,-5407.63,2301.22)">
                    <g transform="matrix(1.16116,0,0,1.16116,-259.26,74.8066)">
                        <path d="M1607.77,-499.165L1607.77,-486.832C1607.77,-485.801 1606.94,-484.965 1605.91,-484.965L1595.14,-484.965C1594.65,-484.965 1594.17,-485.162 1593.82,-485.512C1593.47,-485.862 1593.27,-486.337 1593.27,-486.832C1593.27,-490.043 1593.27,-496.267 1593.27,-496.267L1586.47,-496.267L1586.47,-464.165L1593.27,-464.165L1593.27,-476.797C1593.27,-477.829 1594.11,-478.665 1595.14,-478.665L1605.91,-478.665C1606.94,-478.665 1607.77,-477.829 1607.77,-476.797L1607.77,-464.165L1614.57,-464.165L1614.57,-494.223C1614.57,-496.952 1612.36,-499.165 1609.63,-499.165L1607.77,-499.165Z" style="fill:rgb(34,43,24);fill-rule:nonzero;"/>
                    </g>
                    <path d="M1637.47,-489.515L1637.47,-475.415C1637.47,-472.465 1635.87,-469.715 1632.07,-469.715C1628.52,-469.715 1627.17,-472.165 1627.17,-475.415L1627.17,-489.515L1620.82,-489.515L1620.82,-474.065C1620.82,-468.715 1623.72,-463.515 1630.12,-463.515C1632.99,-463.515 1634.98,-464.503 1636.39,-465.922C1636.57,-466.104 1636.84,-466.158 1637.08,-466.059C1637.32,-465.961 1637.47,-465.729 1637.47,-465.472C1637.47,-464.786 1637.47,-464.165 1637.47,-464.165L1643.82,-464.165L1643.82,-483.777C1643.82,-485.299 1643.22,-486.758 1642.14,-487.834C1641.07,-488.91 1639.61,-489.515 1638.09,-489.515L1637.47,-489.515Z" style="fill:rgb(34,43,24);fill-rule:nonzero;"/>
                    <path d="M1668.62,-489.515L1668.62,-488.232C1668.62,-487.932 1668.45,-487.66 1668.17,-487.539C1667.9,-487.419 1667.58,-487.472 1667.35,-487.676C1665.81,-489.125 1663.64,-490.115 1660.62,-490.115C1652.97,-490.115 1648.32,-484.265 1648.32,-477.715C1648.32,-471.165 1652.97,-465.315 1660.62,-465.315C1663.71,-465.315 1665.91,-466.354 1667.47,-467.858C1667.66,-468.047 1667.96,-468.1 1668.21,-467.993C1668.46,-467.885 1668.62,-467.639 1668.62,-467.366C1668.62,-467.365 1668.62,-467.365 1668.62,-467.365C1668.62,-462.415 1665.92,-459.715 1661.02,-459.715C1657.62,-459.715 1655.32,-460.965 1654.37,-462.215L1649.22,-459.165C1651.32,-456.215 1656.02,-454.065 1661.22,-454.065C1670.22,-454.065 1674.97,-459.815 1674.97,-466.915L1674.97,-483.777C1674.97,-485.299 1674.37,-486.758 1673.29,-487.834C1672.22,-488.91 1670.76,-489.515 1669.24,-489.515L1668.62,-489.515ZM1661.57,-470.965C1657.47,-470.965 1654.82,-473.915 1654.82,-477.715C1654.82,-481.515 1657.47,-484.465 1661.57,-484.465C1665.82,-484.465 1668.32,-481.415 1668.32,-477.715C1668.32,-474.015 1665.82,-470.965 1661.57,-470.965Z" style="fill:rgb(34,43,24);fill-rule:nonzero;"/>
                    <path d="M1692.82,-490.115C1685.22,-490.115 1679.47,-484.265 1679.47,-476.815C1679.47,-469.415 1685.22,-463.515 1692.82,-463.515C1700.47,-463.515 1706.22,-469.415 1706.22,-476.815C1706.22,-484.265 1700.47,-490.115 1692.82,-490.115ZM1692.82,-469.615C1688.62,-469.615 1685.97,-472.865 1685.97,-476.815C1685.97,-480.765 1688.62,-484.015 1692.82,-484.015C1697.07,-484.015 1699.72,-480.765 1699.72,-476.815C1699.72,-472.865 1697.07,-469.615 1692.82,-469.615Z" style="fill:rgb(34,43,24);fill-rule:nonzero;"/>
                </g>
                <g transform="matrix(0.203483,0,0,0.203483,1238.09,-117.724)">
                    <g transform="matrix(267.148,0,0,267.148,3325.61,1471.24)">
                    </g>
                    <text x="1508.66px" y="1471.24px" style="font-family:'GillSansMT-Condensed', 'Gill Sans MT Condensed';font-stretch:condensed;font-size:267.148px;fill:rgb(34,43,24);">CAFÉ 100% <tspan x="2497.55px 2592.12px 2685.65px 2769.27px " y="1471.24px 1471.24px 1471.24px 1471.24px ">ARTE</tspan>SANAL</text>
                </g>
            </g>
        </g>
    </g>
</svg>
